<svg width="542" height="656" viewBox="0 0 542 656" fill="none" xmlns="http://www.w3.org/2000/svg">
<path d="M303.913 583.033L287.412 655H493.675L477.764 520.504V431.329L480.694 396.774C482.258 378.325 487.745 360.423 496.788 344.267L517.544 307.183C525.908 292.238 531.237 275.788 533.224 258.778L539.246 207.239C541.067 191.657 540.052 175.874 536.251 160.653L516.457 81.3923C514.159 72.1923 510.862 63.2713 506.624 54.7886L504.785 51.1078C501.814 45.1626 503.418 38.7934 505.876 32.6187C506.932 29.964 507.5 26.1999 507.5 19.0138C507.5 8.45407 500.358 3.16485 493.359 1.51956C491.153 1.00117 488.866 1.08049 486.606 1.24083L471.284 2.32795C463.999 2.84487 457.555 7.24188 454.417 13.8373C450.463 22.1485 452.606 32.0804 459.635 38.0218L467.017 44.2611C471.728 48.2437 475.222 53.4739 477.096 59.3517L480.957 71.4627C482.361 75.8661 483.366 80.3871 483.959 84.9707L491.326 141.916C492.884 153.964 492.747 166.171 490.917 178.18L485.574 213.235C483.91 224.157 480.86 234.822 476.498 244.972L465.013 271.701C461.445 280.005 455.104 286.812 447.073 290.958L424.318 302.706C411.788 309.176 395.85 307.677 388.057 295.924C383.394 288.892 380.71 281.668 384.061 276.876C395.541 260.46 398.785 239.451 391.155 220.929L382.32 199.477C378.145 189.342 370.186 181.233 360.13 176.871C347.766 171.508 333.582 172.384 321.972 179.228L310.057 186.251C296.025 194.523 287.412 209.598 287.412 225.887C287.412 236.001 290.745 245.834 296.895 253.864L314.521 276.876L333.044 296.681C337.803 301.77 340.451 308.478 340.451 315.446C340.451 326.106 334.283 335.804 324.629 340.325L310.541 346.92C306.144 348.979 302.057 351.644 298.4 354.838L251.827 395.515C246.494 400.173 241.701 405.416 237.538 411.145C226.266 426.66 210.54 438.378 192.45 444.744L165.742 454.143C151.878 459.021 137.287 461.514 122.589 461.514H58.6083C54.0208 461.514 49.4633 460.774 45.1116 459.322L28.7848 453.874C19.4294 450.753 9.15946 454.527 4.05135 462.963C2.05527 466.26 1 470.04 1 473.894V484.609C1 493.421 6.47967 501.305 14.7398 504.376C19.1994 506.034 24.0886 506.135 28.613 504.663L41.5451 500.456C43.9713 499.667 46.2863 498.57 48.4336 497.192C54.2931 493.433 61.282 491.838 68.1923 492.685L171.072 505.291C179.866 506.368 188.788 505.09 196.925 501.586L288.968 461.958C289.653 461.663 290.301 461.286 290.896 460.835C303.885 450.983 322.378 461.339 320.764 477.562L317.5 510.389L303.913 583.033Z" fill="white" stroke="black" stroke-width="2"/>
</svg>
